PathFileType	4	(X/Y/Z)	C:/Users/beibeiliu/ov580/test_trc\sequence.36_training_dense_left.trc
DataRate	CameraRate	NumFrames	NumMarkers	Units	OrigDataRate	OrigDataStartFrame	OrigNumFrames
120	120	8	19	mm	120	83	165
Frame#	Time	ThumbCMC			ThumbMCP			ThumbIP			ThumbTip			IndexMCP			IndexPIP			IndexTip			MiddleMCP			MiddlePIP			MiddleTip			RingMCP			RingPIP			RingTip			PinkyMCP			PinkyPIP			PinkyTip			BackHand1			BackHand2			BackHand3	
		X0	Y0	Z0	X1	Y1	Z1	X2	Y2	Z2	X3	Y3	Z3	X4	Y4	Z4	X5	Y5	Z5	X6	Y6	Z6	X7	Y7	Z7	X8	Y8	Z8	X9	Y9	Z9	X10	Y10	Z10	X11	Y11	Z11	X12	Y12	Z12	X13	Y13	Z13	X14	Y14	Z14	X15	Y15	Z15	X16	Y16	Z16	X17	Y17	Z17	X18	Y18	Z18	
82	0.683333	-183.001	51.5617	73.4202	-167.898	57.8635	55.6369	-159.791	62.4852	29.8404	-153.001	64.9561	12.7319	-167.94	40.7955	6.60314	-148.829	36.4722	-5.80416	-126.85	28.2841	-13.626	-166.249	19.291	7.86249	-132.606	14.1482	7.35766	-117.793	10.6908	33.9006	-171.96	-0.256827	9.69391	-152.188	-6.94431	-1.59353	-128.072	-3.45622	-7.94936	-185.529	-16.0575	25.7969	-182.75	-24.5524	9.23186	-181.555	-32.6728	-6.43567	-203.103	8.47645	45.4999	-212.738	10.4088	71.5173	-206.849	32.4098	59.9057	
83	0.691667	-193.551	48.4446	69.6595	-185.256	62.4889	46.0636	-179.809	62.8007	23.3418	-174.267	69.691	4.38694	-167.155	35.7049	4.39669	-145.276	34.6144	-7.86015	-122.954	36.2516	-15.3075	-153.381	14.3292	6.88895	-125.275	19.0379	11.2766	-111.764	26.3162	36.3111	-157.917	-3.53258	14.5762	-135.655	-4.55131	4.7812	-110.791	0.829881	-0.000440024	-164.971	-23.0276	31.6164	-156.703	-31.2573	19.3977	-151.373	-37.9321	0.129189	-191.938	-3.65225	46.9866	-204.211	-1.3598	71.3465	-205.338	23.5177	52.9367	
84	0.7	-200.877	42.2708	59.3154	-196.246	53.8793	37.2635	-194.422	59.5078	15.0915	-190.322	64.4457	-0.239641	-164.188	29.4006	2.09549	-138.62	32.4235	-9.80762	-121.643	40.0636	-17.5713	-145.69	17.3347	8.60417	-120.021	25.2628	13.6305	-112.812	42.1085	41.2699	-143.777	-5.34774	18.1257	-120.589	1.98685	8.37461	-99.8801	11.6233	5.03093	-149.132	-21.978	33.0992	-136.405	-29.8406	26.4863	-128.299	-36.1048	10.306	-183.37	-11.1337	46.8478	-198.644	-5.51654	71.845	-202.633	15.1335	48.8401	
85	0.708333	-203.189	37.8652	58.4007	-197.824	45.13	35.0557	-195.581	49.7912	14.437	-198.09	57.7653	-3.2217	-158.499	23.4186	1.84115	-140.425	27.5317	-7.39725	-118.21	35.3166	-17.1914	-143.505	13.9153	11.0468	-117.516	30.9797	18.9175	-116.688	44.6148	44.1747	-137.221	-7.84255	22.1834	-117.427	2.4333	12.1208	-93.7469	11.9613	11.2902	-139.773	-26.0399	39.1879	-128.678	-27.8142	31.0843	-113.744	-38.8493	17.7192	-178.684	-13.4913	51.1265	-195.252	-9.19134	67.6942	-201.515	10.338	50.0966	
86	0.716667	-203.168	35.7162	58.5884	-199.045	46.2159	34.4855	-198.833	53.2374	15.1303	-198.936	59.1176	-5.90271	-158.882	19.4023	4.0705	-138.944	25.4731	-10.7036	-115.268	30.2823	-18.8648	-142.576	7.73698	14.9513	-118.427	24.5129	19.2862	-118.314	41.847	50.8812	-139.082	-7.87297	23.1581	-113.864	-2.05486	15.6095	-96.6905	6.07098	13.7827	-143.656	-24.326	39.6007	-128.045	-28.6916	28.5564	-115.555	-39.2815	21.9738	-180.493	-13.4094	53.0802	-198.165	-9.79602	66.2499	-202.813	9.55428	47.2348	
87	0.725	-203.429	43.1661	57.2004	-197.292	55.0297	34.0394	-190.892	57.0838	14.2948	-191.337	68.8661	-2.7118	-158.967	21.3717	1.64754	-140.028	22.8292	-8.78117	-116.991	26.5577	-18.8163	-144.101	11.8044	11.3956	-118.964	25.083	18.2772	-116.86	38.7842	45.503	-143.32	-10.3991	23.7137	-121.314	-3.60625	15.1001	-98.3453	5.4052	13.9794	-150.102	-23.1341	38.9537	-134.143	-31.661	29.6307	-122.651	-39.3759	20.5334	-186.642	-11.03	49.9086	-204.348	-5.3922	69.814	-204.94	14.3425	46.6718	
88	0.733333	-197.369	57.6932	55.4769	-185.257	68.1373	36.9804	-175.703	74.4459	13.0983	-164.23	76.5406	-2.72144	-162.155	31.3139	3.08746	-139.07	31.009	-12.4259	-120.962	27.5523	-19.5792	-144.871	15.6517	10.5942	-118.449	25.074	19.05	-113.027	39.2549	42.5208	-150.596	-3.26172	22.9175	-127.743	0.52613	13.9749	-104.238	4.9999	13.9095	-158.749	-15.4407	34.8089	-146.184	-21.9454	25.9831	-136.187	-34.4271	17.2123	-193.716	4.34438	47.7911	-208.291	7.94426	66.3052	-203.336	30.546	42.7126	
89	0.741667	-177.276	76.4814	60.239	-157.989	81.1667	42.259	-144.123	77.8837	22.2743	-130.61	76.5157	9.25763	-158.242	47.5595	2.88359	-138.986	41.0604	-13.1554	-121.193	36.6971	-27.2028	-147.013	28.0181	7.93622	-118.087	30.093	13.3391	-106.61	35.6522	40.64	-156.165	12.5688	16.3595	-133.796	6.14759	7.94062	-110.559	8.54422	6.75742	-168.499	-1.81633	34.6249	-157.681	-9.67879	20.0673	-151.52	-19.8127	4.38862	-193.223	24.1146	49.1797	-206.593	32.1275	69.2769	-197.318	55.6015	46.2932	
